<svg width="1024" height="1024" viewBox="0 0 1024 1024" fill="none" xmlns="http://www.w3.org/2000/svg">
<path d="M751.67 401.802C755.374 404.448 769.496 406.264 777.893 406.264C786.29 406.264 795.389 405.971 803.782 405.094C811.903 404.244 819.403 402.844 824.969 400.608L825.501 400.387C836.747 396.234 845.351 385.758 851.124 376.405C854.019 371.714 856.218 367.28 857.692 364.02C858.429 362.389 858.987 361.05 859.36 360.119C859.546 359.653 859.687 359.289 859.781 359.041C859.821 358.935 859.852 358.851 859.875 358.788L859.886 358.757C859.898 358.725 859.908 358.7 859.914 358.683C859.917 358.675 859.919 358.669 859.92 358.664L859.922 358.659L859.924 358.657L860 358.444C860 358.444 855.13 354.694 841.638 327.71C832.137 308.706 819.462 282.011 819.462 282.011L700.864 255.735C717.917 288.903 750.808 401.186 751.67 401.802Z" fill="#754FCD"/>
<path d="M509.07 611.503C509.022 611.677 508.959 611.911 508.88 612.2C508.689 612.906 508.409 613.949 508.055 615.297C507.349 617.992 506.349 621.908 505.172 626.797C502.818 636.575 499.758 650.247 496.932 665.822C491.283 696.942 486.546 735.77 490.297 766.323C493.209 790.041 500.642 819.534 507.333 843.066C510.681 854.838 513.847 865.132 516.176 872.483C517.34 876.158 518.296 879.098 518.96 881.12C519.043 881.371 519.122 881.609 519.195 881.832L254.175 737.107C254.221 736.914 254.276 736.685 254.339 736.42C254.561 735.485 254.89 734.109 255.313 732.346C256.16 728.818 257.387 723.741 258.907 717.54C261.945 705.138 266.153 688.245 270.828 670.279C280.188 634.308 291.394 594.156 298.843 577.062C310.313 550.744 334.728 504.459 356.298 464.719C367.079 444.857 377.142 426.643 384.51 413.393C388.194 406.768 391.204 401.384 393.293 397.657C394.299 395.861 395.092 394.45 395.643 393.47L509.07 611.503Z" fill="#A9A9A9" stroke="#6B6B6B" stroke-width="2"/>
<path d="M476.058 592.5V742.983H575.37L553.153 787.436C548.863 796.015 543.216 803.13 536.677 808.783L533.528 797.033L498.423 806.44L503.204 824.283C475.56 828.734 445.537 816.452 431.027 787.434L244.946 415.272H384.937L476.058 592.5Z" fill="#727171"/>
<path d="M246.558 159C254.955 159 262.658 159.292 268.261 159.584C271.063 159.73 273.341 159.877 274.919 159.986C275.707 160.041 276.321 160.087 276.738 160.119C276.946 160.135 277.106 160.147 277.213 160.156C277.267 160.16 277.307 160.164 277.334 160.166C277.348 160.167 277.359 160.167 277.365 160.168C277.369 160.168 277.374 160.169 277.374 160.169H277.376L277.669 160.194L277.803 160.454L306.914 217.076L321.47 245.388L336.026 273.699L394.249 386.943L510.696 613.431L604.457 431.143L651.337 339.999L674.778 294.427L686.498 271.641C686.498 271.641 693.455 257.958 700.864 255.735C710.919 252.718 728.516 257.058 728.516 257.058L758.814 265.261L819.462 282.011L571.758 777.184C546.599 827.502 474.792 827.501 449.633 777.183L307.042 492.001L235.746 349.41L217.923 313.763L200.099 278.115L164.451 206.82L164.527 206.607L164.528 206.605C164.528 206.605 164.53 206.601 164.531 206.599C164.532 206.595 164.534 206.589 164.537 206.581C164.543 206.564 164.553 206.539 164.565 206.506C164.588 206.442 164.623 206.347 164.67 206.223C164.764 205.975 164.904 205.61 165.091 205.145C165.464 204.214 166.022 202.874 166.759 201.244C168.233 197.984 170.432 193.55 173.327 188.859C179.1 179.505 187.704 169.029 198.95 164.876L199.482 164.656C205.048 162.42 212.548 161.019 220.669 160.17C229.062 159.292 238.161 159 246.558 159Z" fill="url(#paint0_linear_1_8)"/>
<path d="M367.025 611.052C367.025 611.052 380.538 605.591 426.201 604.529C466.272 603.597 511.469 611.052 511.469 611.052C511.469 611.052 469.15 638.78 449.498 656.249C429.846 673.718 415.95 708.435 415.95 708.435L367.025 611.052Z" fill="#5D5FA7"/>
<path d="M86.0587 330.682C90.0084 331.084 95.6992 331.668 102.661 332.396C116.584 333.852 135.593 335.883 155.933 338.183C196.636 342.786 242.607 348.461 263.88 352.764C292.012 358.454 325.277 368.372 351.528 376.875C364.65 381.124 376.011 385.018 384.092 387.849C388.132 389.265 391.351 390.415 393.56 391.211C394.665 391.608 395.517 391.918 396.092 392.128C396.298 392.203 396.468 392.265 396.602 392.314L509.578 610.183C509.057 610.102 508.437 610.005 507.724 609.898C505.255 609.53 501.665 609.02 497.171 608.453C488.184 607.32 475.581 605.96 461.114 605.053C432.204 603.241 395.761 603.232 365.857 610.509C336.121 617.746 306.08 633.407 283.506 647.225C272.211 654.139 262.77 660.602 256.152 665.338C252.842 667.705 250.237 669.642 248.459 670.987C247.735 671.535 247.149 671.985 246.708 672.326L81.6759 330.237C82.7154 330.342 84.1928 330.492 86.0587 330.682Z" fill="#E9E9E9" stroke="#B7B5B5" stroke-width="2"/>
<line x1="179.459" y1="377.075" x2="255.375" y2="535.203" stroke="#C0C0C0" stroke-width="8" stroke-linecap="round"/>
<line x1="224.193" y1="434.846" x2="270.111" y2="530.148" stroke="#C0C0C0" stroke-width="8" stroke-linecap="round"/>
<line x1="259.575" y1="475.001" x2="285.105" y2="530.178" stroke="#C0C0C0" stroke-width="8" stroke-linecap="round"/>
<line x1="384.497" y1="507.483" x2="416.369" y2="572.066" stroke="#C0C0C0" stroke-width="8" stroke-linecap="round"/>
<line x1="367.728" y1="413.345" x2="449.901" y2="578.584" stroke="#C0C0C0" stroke-width="8" stroke-linecap="round"/>
<line x1="384.51" y1="413.322" x2="467.584" y2="578.576" stroke="#C0C0C0" stroke-width="8" stroke-linecap="round"/>
<ellipse cx="303.825" cy="566.767" rx="45.9305" ry="30.2867" transform="rotate(-10 303.825 566.767)" fill="#C3C2C2"/>
<defs>
<linearGradient id="paint0_linear_1_8" x1="164.228" y1="814.599" x2="819.411" y2="159.416" gradientUnits="userSpaceOnUse">
<stop stop-color="#6366F1"/>
<stop offset="1" stop-color="#8B5CF6"/>
</linearGradient>
</defs>
</svg>
